<?xml version="1.0" encoding="UTF-8" standalone="no"?>
<!-- Generator: Adobe Illustrator 16.0.0, SVG Export Plug-In . SVG Version: 6.00 Build 0)  -->

<svg
   xmlns:dc="http://purl.org/dc/elements/1.1/"
   xmlns:cc="http://creativecommons.org/ns#"
   xmlns:rdf="http://www.w3.org/1999/02/22-rdf-syntax-ns#"
   xmlns:svg="http://www.w3.org/2000/svg"
   xmlns="http://www.w3.org/2000/svg"
   xmlns:sodipodi="http://sodipodi.sourceforge.net/DTD/sodipodi-0.dtd"
   xmlns:inkscape="http://www.inkscape.org/namespaces/inkscape"
   version="1.1"
   id="Capa_1"
   x="0px"
   y="0px"
   width="100px"
   height="88px"
   viewBox="0 0 100 88"
   style="enable-background:new 0 0 100 88;"
   xml:space="preserve"
   inkscape:version="0.48.4 r9939"
   sodipodi:docname="people.svg"><metadata
     id="metadata41"><rdf:RDF><cc:Work
         rdf:about=""><dc:format>image/svg+xml</dc:format><dc:type
           rdf:resource="http://purl.org/dc/dcmitype/StillImage" /></cc:Work></rdf:RDF></metadata><defs
     id="defs39" /><sodipodi:namedview
     pagecolor="#ffffff"
     bordercolor="#666666"
     borderopacity="1"
     objecttolerance="10"
     gridtolerance="10"
     guidetolerance="10"
     inkscape:pageopacity="0"
     inkscape:pageshadow="2"
     inkscape:window-width="1396"
     inkscape:window-height="880"
     id="namedview37"
     showgrid="false"
     inkscape:zoom="2.6818182"
     inkscape:cx="-11.898305"
     inkscape:cy="44"
     inkscape:window-x="0"
     inkscape:window-y="26"
     inkscape:window-maximized="0"
     inkscape:current-layer="Capa_1" /><g
     id="g3"
     style="fill:#333333;fill-opacity:1"><path
       d="M100,88c0,0-0.197-18.934-1.354-20.896c-1.721-2.923-5.729-4.932-13.17-8.041c-7.416-3.101-9.787-5.716-9.787-11.316   c0-3.364,2.264-2.264,3.26-8.419c0.412-2.555,2.412-0.043,2.795-5.872c0-2.324-1.092-2.903-1.092-2.903s0.555-3.437,0.771-6.084   c0.27-3.298-1.662-11.815-11.955-11.815c-10.295,0-12.225,8.518-11.955,11.815c0.217,2.647,0.77,6.084,0.77,6.084   s-1.09,0.579-1.09,2.903c0.383,5.829,2.381,3.317,2.795,5.872c0.994,6.155,3.26,5.056,3.26,8.419c0,3.807-1.102,6.235-4.137,8.375   c16.203,8.111,18.375,9.764,18.375,17.015V88H100z M51.117,61.877c-9.891-4.134-13.051-7.621-13.051-15.086   c0-4.483,3.02-3.019,4.346-11.228c0.549-3.404,3.217-0.056,3.727-7.829c0-3.098-1.455-3.868-1.455-3.868s0.74-4.583,1.029-8.112   C46.072,11.357,43.498,0,29.771,0C16.047,0,13.471,11.357,13.832,15.754c0.289,3.529,1.027,8.112,1.027,8.112   s-1.455,0.77-1.455,3.868c0.512,7.773,3.178,4.425,3.729,7.829c1.326,8.208,4.346,6.744,4.346,11.228   c0,7.465-3.162,10.952-13.051,15.086C5.414,63.137,0,65.088,0,69.783V88h69.469c0,0,0-10.776,0-13.659   C69.469,70.059,61.037,66.025,51.117,61.877z"
       id="path5"
       style="fill:#333333;fill-opacity:1" /></g><g
     id="g7" /><g
     id="g9" /><g
     id="g11" /><g
     id="g13" /><g
     id="g15" /><g
     id="g17" /><g
     id="g19" /><g
     id="g21" /><g
     id="g23" /><g
     id="g25" /><g
     id="g27" /><g
     id="g29" /><g
     id="g31" /><g
     id="g33" /><g
     id="g35" /></svg>