<?xml version="1.0" encoding="UTF-8" standalone="no"?>
<!-- Generator: Adobe Illustrator 16.0.0, SVG Export Plug-In . SVG Version: 6.00 Build 0)  -->

<svg
   xmlns:dc="http://purl.org/dc/elements/1.1/"
   xmlns:cc="http://creativecommons.org/ns#"
   xmlns:rdf="http://www.w3.org/1999/02/22-rdf-syntax-ns#"
   xmlns:svg="http://www.w3.org/2000/svg"
   xmlns="http://www.w3.org/2000/svg"
   xmlns:sodipodi="http://sodipodi.sourceforge.net/DTD/sodipodi-0.dtd"
   xmlns:inkscape="http://www.inkscape.org/namespaces/inkscape"
   version="1.1"
   id="Capa_1"
   x="0px"
   y="0px"
   width="70px"
   height="88px"
   viewBox="0 0 70 88"
   style="enable-background:new 0 0 70 88;"
   xml:space="preserve"
   inkscape:version="0.48.4 r9939"
   sodipodi:docname="server.svg"><metadata
     id="metadata39"><rdf:RDF><cc:Work
         rdf:about=""><dc:format>image/svg+xml</dc:format><dc:type
           rdf:resource="http://purl.org/dc/dcmitype/StillImage" /></cc:Work></rdf:RDF></metadata><defs
     id="defs37" /><sodipodi:namedview
     pagecolor="#ffffff"
     bordercolor="#666666"
     borderopacity="1"
     objecttolerance="10"
     gridtolerance="10"
     guidetolerance="10"
     inkscape:pageopacity="0"
     inkscape:pageshadow="2"
     inkscape:window-width="710"
     inkscape:window-height="480"
     id="namedview35"
     showgrid="false"
     inkscape:zoom="2.6818182"
     inkscape:cx="35"
     inkscape:cy="44"
     inkscape:window-x="0"
     inkscape:window-y="26"
     inkscape:window-maximized="0"
     inkscape:current-layer="Capa_1" /><path
     d="M68.631,58.199C64.414,65.02,50.955,70.007,35,70.007c-15.953,0-29.414-4.987-33.629-11.808C0.477,56.756,0,57.528,0,58.245  c0,0.715,0,10.01,0,10.01C0,77.948,15.67,88,35,88c19.332,0,35-10.052,35-19.745c0,0,0-9.295,0-10.01  C70,57.528,69.523,56.756,68.631,58.199z M68.688,32.624c-4.148,6.03-17.66,10.45-33.688,10.45c-16.025,0-29.539-4.42-33.688-10.45  C0.457,31.381,0,32.056,0,32.619c0,0.564,0,11.779,0,11.779c0,8.813,15.67,15.955,35,15.955c19.332,0,35-7.142,35-15.955  c0,0,0-11.215,0-11.779C70,32.056,69.543,31.381,68.688,32.624z M35,0C15.67,0,0,5.893,0,13.162v6.298c0,7.71,15.67,13.96,35,13.96  c19.332,0,35-6.25,35-13.96v-6.298C70,5.893,54.332,0,35,0z"
     id="path3"
     style="fill:#333333" /><g
     id="g5" /><g
     id="g7" /><g
     id="g9" /><g
     id="g11" /><g
     id="g13" /><g
     id="g15" /><g
     id="g17" /><g
     id="g19" /><g
     id="g21" /><g
     id="g23" /><g
     id="g25" /><g
     id="g27" /><g
     id="g29" /><g
     id="g31" /><g
     id="g33" /></svg>